<svg width="601" height="668" viewBox="0 0 601 668" fill="none" xmlns="http://www.w3.org/2000/svg">
<path d="M300.333 34H140.333C102.996 34 84.3278 34 70.0672 41.2663C57.5228 47.6577 47.3242 57.8563 40.9328 70.4007C33.6665 84.6613 33.6665 103.33 33.6665 140.667V527.333C33.6665 564.67 33.6665 583.34 40.9328 597.6C47.3242 610.143 57.5228 620.343 70.0672 626.733C84.3278 634 102.996 634 140.333 634H267M300.333 34L500.333 234M300.333 34V180.667C300.333 199.335 300.333 208.669 303.967 215.8C307.163 222.072 312.26 227.171 318.533 230.367C325.663 234 334.997 234 353.667 234H500.333M500.333 234V334M433.666 567.333H567M500.333 500.667V634" stroke="#1890FF" stroke-width="66.6667" stroke-linecap="round" stroke-linejoin="round"/>
</svg>
