<svg width="8" height="10" viewBox="0 0 8 10" fill="none" xmlns="http://www.w3.org/2000/svg">
<path d="M6.46471 1.13033e-06C6.33196 1.10711e-06 6.19783 0.0417047 6.08582 0.125112L0.225402 4.56784C0.0829705 4.676 9.02394e-07 4.83891 8.72088e-07 5.01224C8.4201e-07 5.18426 0.0829704 5.34847 0.225401 5.45534L6.06092 9.87461C6.3209 10.0714 6.70117 10.0323 6.90998 9.78729C7.11879 9.54228 7.0773 9.18389 6.81733 8.9871L1.56813 5.01224L6.84361 1.01261C7.10358 0.815826 7.14506 0.457436 6.93625 0.212428C6.81595 0.0729823 6.64171 1.16127e-06 6.46471 1.13033e-06Z" fill="black" fill-opacity="0.75"/>
</svg>