<svg width="615" height="668" viewBox="0 0 615 668" fill="none" xmlns="http://www.w3.org/2000/svg">
<path d="M300.333 34H140.333C102.997 34 84.3281 34 70.0674 41.2663C57.5231 47.6577 47.3244 57.8563 40.9331 70.4007C33.6667 84.6613 33.6667 103.33 33.6667 140.667V527.333C33.6667 564.67 33.6667 583.34 40.9331 597.6C47.3244 610.143 57.5231 620.343 70.0674 626.733C84.3281 634 102.997 634 140.333 634H200.333M300.333 34L500.333 234M300.333 34V180.667C300.333 199.335 300.333 208.669 303.967 215.8C307.163 222.072 312.26 227.171 318.533 230.367C325.663 234 334.997 234 353.667 234H500.333M500.333 234V267.333M167 500.667H250.333M167 367.333H333.667M167 234H200.333M333.667 634L401.167 620.5C407.05 619.323 409.993 618.733 412.737 617.657C415.173 616.703 417.49 615.463 419.633 613.967C422.053 612.28 424.173 610.16 428.42 605.913L567 467.333C585.41 448.923 585.41 419.077 567 400.667C548.59 382.257 518.743 382.257 500.333 400.667L361.753 539.247C357.507 543.493 355.387 545.613 353.7 548.033C352.203 550.177 350.963 552.493 350.01 554.93C348.933 557.673 348.343 560.617 347.167 566.5L333.667 634Z" stroke="#52C41A" stroke-width="66.6667" stroke-linecap="round" stroke-linejoin="round"/>
</svg>
